<?xml version="1.0" standalone="no"?>
<!DOCTYPE svg PUBLIC "-//W3C//DTD SVG 20010904//EN"
 "http://www.w3.org/TR/2001/REC-SVG-20010904/DTD/svg10.dtd">
<svg version="1.0" xmlns="http://www.w3.org/2000/svg"
 width="44px" height="44px" viewBox="100 0 750 1110"
 preserveAspectRatio="xMidYMid meet">
<g transform="translate(0.000000,1692.000000) scale(0.100000,-0.100000)"
fill="#fff" stroke="none">
<path d="M4775 16019 c-4 -5 -11 -146 -16 -312 -6 -233 -6 -303 4 -309 7 -5
28 -7 47 -6 l35 3 6 105 c4 58 7 120 8 138 l1 32 58 0 c36 0 66 -6 80 -16 25
-17 63 -88 82 -151 7 -24 17 -43 21 -43 4 0 11 -10 15 -22 4 -13 16 -31 27
-40 24 -21 75 -24 83 -4 3 8 -14 63 -37 122 -32 82 -51 116 -80 144 -22 20
-39 39 -39 42 0 3 16 9 35 12 85 16 126 155 71 236 -37 55 -127 80 -278 80
-71 0 -119 -4 -123 -11z m237 -69 c47 -13 78 -52 78 -97 0 -75 -42 -103 -155
-103 l-75 0 0 105 0 105 58 0 c31 0 74 -5 94 -10z"/>
<path d="M4280 16013 c-32 -12 -50 -45 -76 -144 -15 -57 -31 -106 -34 -109
-12 -9 -111 -382 -106 -396 6 -16 39 -18 66 -4 11 6 22 26 26 45 3 19 10 35
14 35 4 0 11 19 16 42 9 41 11 43 54 49 25 3 93 9 153 13 l107 7 37 -80 36
-81 43 0 c23 0 45 4 49 10 6 10 -21 81 -34 90 -5 3 -39 73 -76 155 -38 83 -76
157 -85 165 -9 8 -34 53 -55 100 -21 47 -42 91 -48 98 -10 12 -59 15 -87 5z
m116 -266 l53 -122 -42 -7 c-23 -3 -75 -7 -115 -7 l-74 -1 7 33 c4 17 11 34
14 37 4 3 20 56 36 117 28 112 29 113 48 92 10 -11 43 -75 73 -142z"/>
<path d="M5444 15995 c-7 -5 -17 -37 -20 -70 -4 -33 -10 -62 -14 -65 -3 -3
-17 -98 -30 -212 -13 -115 -27 -208 -32 -208 -18 0 -7 -47 15 -59 12 -6 99
-20 192 -31 158 -18 171 -18 183 -3 34 46 11 58 -143 73 -71 7 -133 14 -136
16 -5 3 17 214 23 219 2 1 42 -2 90 -6 178 -16 163 -18 166 18 4 37 -1 39
-103 48 -38 3 -87 8 -109 11 l-38 6 6 52 c4 28 9 71 13 95 l6 44 101 -9 c55
-4 124 -8 151 -8 49 -1 50 0 50 29 0 29 -2 30 -55 37 -171 24 -303 33 -316 23z"/>
<path d="M3604 15936 c-74 -15 -135 -50 -188 -106 -37 -39 -65 -95 -66 -132 0
-10 -4 -18 -10 -18 -5 0 -10 -18 -10 -40 0 -22 5 -40 10 -40 6 0 10 -10 10
-23 0 -38 28 -122 50 -148 92 -108 133 -130 255 -137 71 -3 106 0 161 15 86
25 154 66 154 93 0 33 -51 264 -61 274 -8 9 -197 -14 -251 -30 -21 -6 -23 -33
-5 -56 11 -15 20 -15 92 -4 89 15 90 15 101 -49 3 -22 10 -42 14 -45 4 -3 10
-19 13 -37 6 -29 3 -33 -36 -54 -66 -35 -175 -38 -252 -7 -52 21 -64 31 -91
76 -59 97 -64 226 -13 308 48 78 185 112 331 82 31 -7 60 -9 64 -5 13 13 -6
53 -35 70 -39 23 -159 29 -237 13z"/>
<path d="M6285 15857 c-7 -17 -16 -49 -20 -69 -4 -21 -11 -38 -15 -38 -4 0
-19 -47 -35 -105 -15 -58 -31 -105 -35 -105 -13 0 -32 -127 -25 -168 8 -49 64
-115 119 -141 132 -62 264 -54 348 22 28 26 68 93 68 114 0 6 4 13 8 15 4 2
25 66 46 143 21 77 43 143 48 146 5 3 10 25 11 49 2 41 1 44 -33 52 -28 8 -36
6 -47 -8 -7 -10 -13 -26 -13 -36 0 -10 -4 -18 -8 -18 -4 0 -19 -40 -32 -90
-13 -49 -28 -90 -32 -90 -4 0 -8 -5 -8 -12 0 -7 -12 -50 -26 -97 -43 -140
-110 -183 -230 -145 -116 36 -134 95 -83 279 18 66 35 122 39 125 8 6 50 153
50 174 0 9 -12 18 -27 22 -16 3 -34 7 -41 10 -7 2 -19 -10 -27 -29z"/>
<path d="M2815 15738 c-55 -16 -106 -35 -112 -42 -10 -9 -3 -40 34 -151 25
-77 49 -142 53 -145 4 -3 26 -62 50 -132 24 -71 46 -128 50 -128 4 0 10 -9 13
-20 6 -23 53 -28 80 -7 16 11 16 17 -9 92 -15 44 -30 82 -34 85 -4 3 -14 26
-23 52 -18 54 -18 54 68 64 49 6 59 4 105 -26 27 -18 73 -60 101 -94 72 -85
80 -90 129 -75 22 7 40 16 40 22 0 26 -192 208 -240 227 l-40 16 29 17 c32 19
61 72 61 111 0 94 -85 166 -195 165 -37 0 -99 -12 -160 -31z m196 -58 c25 -14
49 -62 49 -99 0 -42 -49 -87 -116 -107 -30 -8 -60 -14 -66 -12 -6 2 -26 47
-44 99 l-33 94 52 17 c60 19 130 23 158 8z"/>
<path d="M6958 15696 c-38 -28 -22 -49 65 -83 45 -18 88 -33 94 -33 9 0 9 -8
1 -32 -6 -18 -15 -35 -19 -38 -4 -3 -38 -79 -75 -170 -37 -91 -74 -171 -81
-178 -7 -7 -13 -20 -13 -28 0 -8 -4 -14 -9 -14 -7 0 -31 -51 -31 -67 0 -4 42
-21 74 -29 21 -5 27 4 76 123 29 70 55 130 59 133 4 3 15 25 26 50 11 25 23
47 26 50 6 4 23 43 60 137 9 25 10 25 138 -22 72 -27 75 -27 88 -9 27 37 12
54 -72 84 -138 48 -329 117 -358 129 -34 13 -28 13 -49 -3z"/>
<path d="M2410 15602 c-8 -2 -23 -11 -32 -19 -16 -14 -15 -20 18 -86 20 -39
42 -76 49 -84 8 -7 17 -22 20 -33 3 -11 10 -20 16 -20 16 0 100 -181 106 -228
9 -82 -55 -147 -154 -158 -68 -8 -127 24 -170 91 -18 28 -36 55 -41 61 -6 6
-18 26 -27 45 -10 19 -21 36 -25 39 -4 3 -28 46 -53 95 -64 127 -64 127 -110
110 -21 -7 -41 -16 -44 -19 -7 -6 10 -49 27 -69 6 -7 19 -23 30 -36 11 -13 48
-78 82 -145 48 -95 74 -133 121 -179 68 -65 85 -72 182 -72 104 0 178 40 266
145 18 21 20 35 17 96 -2 50 -8 76 -21 88 -9 10 -17 21 -17 26 0 5 -6 15 -13
22 -8 7 -42 68 -76 134 -33 67 -70 131 -81 144 -11 13 -20 27 -20 31 0 13 -33
27 -50 21z"/>
<path d="M7708 15362 c-20 -15 -64 -47 -98 -72 -34 -25 -95 -73 -136 -107 -41
-35 -79 -63 -84 -63 -4 0 -40 -26 -79 -57 -38 -32 -81 -66 -95 -76 -35 -24
-33 -44 9 -64 l34 -16 46 39 c26 21 60 48 77 58 l30 19 124 -62 c138 -69 132
-59 112 -169 -12 -65 -12 -65 16 -88 57 -50 65 -33 110 237 21 129 42 236 46
239 6 4 30 132 30 159 0 9 -83 52 -99 51 -3 -1 -22 -13 -43 -28z m29 -134 c-5
-35 -12 -65 -16 -68 -4 -3 -13 -39 -20 -80 -20 -120 -11 -114 -99 -72 -42 20
-90 44 -105 53 l-28 17 73 55 c40 31 88 69 106 84 26 21 70 55 98 72 0 1 -3
-27 -9 -61z"/>
<path d="M1675 15190 c-68 -15 -265 -142 -265 -169 0 -14 120 -166 135 -171 7
-3 42 -41 77 -86 35 -44 77 -95 93 -113 115 -125 113 -123 137 -115 12 4 51
29 87 55 35 27 70 49 76 49 18 0 75 67 91 106 42 99 -14 209 -118 234 -27 7
-63 9 -81 6 l-32 -6 3 53 c3 48 1 55 -35 94 -50 55 -109 77 -168 63z m71 -102
c65 -45 71 -103 17 -153 -21 -19 -42 -35 -46 -35 -5 0 -20 -9 -34 -20 l-26
-20 -48 62 c-26 34 -57 66 -68 70 -30 11 -26 37 6 49 16 6 35 17 43 24 25 23
74 45 99 45 14 0 39 -10 57 -22z m242 -215 c59 -41 66 -94 18 -135 -47 -40
-139 -108 -147 -108 -4 0 -12 7 -16 15 -8 13 -90 110 -124 146 -16 16 -15 18
5 28 11 6 35 20 51 31 100 67 144 72 213 23z"/>
<path d="M8155 15054 c-33 -37 -91 -99 -130 -138 -38 -39 -88 -94 -110 -122
-22 -28 -54 -62 -70 -74 -71 -54 -79 -90 -25 -117 32 -16 58 4 135 100 33 42
70 81 82 88 12 7 42 37 67 68 49 63 107 123 113 117 6 -6 -29 -180 -37 -186
-9 -7 -70 -318 -70 -358 0 -38 40 -82 73 -82 23 0 159 134 246 243 30 37 60
67 66 67 14 0 135 149 135 166 0 7 -12 22 -27 34 l-28 22 -35 -41 c-19 -23
-40 -41 -45 -41 -6 0 -39 -36 -74 -79 -35 -44 -73 -88 -85 -99 -11 -11 -43
-43 -70 -71 -27 -28 -50 -50 -52 -48 -4 5 50 252 56 257 4 3 18 60 30 128 13
67 28 122 32 122 4 0 8 7 8 16 0 25 -62 83 -95 90 -28 5 -36 0 -90 -62z"/>
<path d="M4395 15028 c-152 -9 -287 -27 -281 -37 3 -4 -17 -6 -42 -5 -76 2
-234 -15 -248 -27 -7 -6 -18 -8 -24 -4 -6 4 -16 2 -23 -3 -7 -5 -30 -12 -52
-15 -22 -3 -62 -10 -90 -16 -27 -5 -79 -14 -115 -20 -124 -20 -164 -29 -167
-38 -2 -5 -18 -7 -36 -5 -19 2 -51 -3 -71 -12 -21 -9 -49 -16 -62 -16 -13 0
-24 -4 -24 -10 0 -5 -5 -10 -11 -10 -5 0 -7 6 -4 13 4 6 0 4 -8 -6 -11 -13
-16 -15 -20 -5 -4 10 -7 11 -18 1 -7 -7 -27 -13 -44 -13 -16 0 -52 -11 -78
-25 -26 -14 -66 -28 -90 -31 -46 -7 -109 -32 -103 -43 2 -3 -12 -7 -32 -7 -21
-1 -59 -11 -87 -24 -72 -32 -87 -38 -111 -44 -11 -4 -29 -14 -40 -24 -11 -10
-41 -27 -67 -37 -26 -10 -47 -21 -47 -24 0 -4 -18 -15 -40 -25 -23 -10 -37
-22 -34 -28 4 -7 2 -8 -4 -4 -14 8 -54 -16 -101 -61 -18 -18 -43 -35 -55 -39
-35 -11 -77 -45 -70 -56 4 -7 2 -8 -4 -4 -12 7 -54 -23 -46 -35 2 -4 -5 -5
-16 -2 -11 3 -20 0 -20 -6 0 -6 -7 -11 -15 -11 -8 0 -15 -4 -15 -10 0 -5 -13
-22 -29 -37 -16 -15 -34 -32 -40 -38 -6 -5 -38 -39 -71 -75 -34 -36 -66 -69
-72 -75 -5 -5 -22 -23 -37 -39 -14 -15 -47 -51 -73 -78 -27 -28 -48 -56 -48
-64 0 -7 -3 -14 -7 -16 -12 -5 -83 -95 -83 -105 0 -4 -9 -19 -20 -33 -11 -14
-20 -33 -20 -42 0 -9 -10 -24 -21 -32 -14 -9 -19 -21 -15 -31 3 -9 2 -13 -4
-10 -5 3 -12 -7 -16 -22 -4 -15 -17 -49 -30 -75 -27 -54 -29 -62 -11 -53 6 4
5 1 -3 -7 -27 -23 -50 -66 -50 -93 0 -14 -4 -33 -9 -43 -5 -9 -16 -38 -24 -64
l-14 -48 24 0 c24 0 25 -2 18 -49 -3 -26 -8 -95 -9 -152 l-3 -104 -29 -10
c-16 -5 -32 -14 -36 -20 -14 -19 -9 -130 7 -151 8 -10 15 -30 15 -44 0 -31 26
-70 46 -70 9 0 14 -11 14 -32 1 -44 22 -70 53 -66 13 1 32 -4 41 -11 14 -12
19 -12 25 -2 11 17 12 17 41 1 14 -8 32 -13 42 -12 9 2 19 -2 23 -8 3 -5 17
-10 31 -10 13 0 24 -4 24 -10 0 -5 3 -9 8 -9 4 1 9 0 12 -1 21 -8 40 -6 40 3
0 8 3 7 9 -1 5 -9 40 -15 102 -18 52 -3 103 -9 114 -14 52 -22 133 -41 157
-36 15 2 28 0 30 -5 3 -8 25 -14 148 -39 51 -11 192 -28 295 -36 39 -3 84 -9
100 -14 17 -5 53 -10 80 -11 28 -1 62 -8 77 -16 15 -7 59 -13 101 -13 66 0
175 -8 507 -39 58 -6 164 -13 235 -17 72 -3 146 -8 165 -10 79 -10 322 -24
417 -24 56 0 130 -7 165 -15 45 -10 130 -14 296 -15 129 0 237 -2 242 -5 4 -3
72 -9 151 -15 79 -5 180 -14 223 -20 44 -5 159 -10 255 -11 97 -2 329 -4 516
-7 380 -4 1007 7 1000 17 -2 4 8 6 23 3 38 -5 213 25 280 48 31 11 64 20 73
20 18 0 107 25 149 42 40 16 163 48 186 48 12 0 35 7 50 15 16 8 37 15 46 15
9 0 27 4 40 9 52 21 136 49 178 61 44 12 65 20 113 40 67 28 101 40 118 40 10
0 30 12 46 26 23 21 27 34 28 77 0 29 4 57 8 64 4 6 9 31 12 55 7 61 13 108
19 143 3 17 7 97 10 178 2 82 7 151 10 154 3 4 1 12 -4 18 -8 9 -4 14 14 19
23 6 24 9 20 63 -3 32 -7 67 -10 78 -3 11 -8 38 -11 60 -3 22 -9 44 -14 49 -5
6 -9 20 -9 31 0 20 -30 93 -51 125 -5 8 -12 23 -15 33 -4 9 -10 17 -14 17 -4
0 -11 11 -14 25 -4 14 -12 25 -19 25 -8 0 -7 4 3 10 12 8 11 10 -6 10 -15 0
-32 15 -53 49 -17 27 -41 59 -52 72 -64 74 -160 179 -196 216 -24 24 -43 45
-43 48 0 9 -150 155 -159 155 -4 0 -13 11 -20 24 -7 13 -24 30 -37 37 -13 7
-24 16 -24 21 0 4 -4 8 -9 8 -5 0 -31 21 -59 48 -76 72 -109 97 -165 128 -29
15 -72 43 -96 61 -25 19 -51 31 -58 29 -7 -3 -13 0 -13 7 0 10 -25 28 -110 76
-32 18 -108 51 -118 51 -6 0 -32 11 -58 25 -26 14 -56 25 -68 25 -12 0 -73 18
-136 41 -99 34 -167 50 -281 64 -14 1 -61 12 -105 23 -148 38 -294 61 -434 68
-47 3 -98 7 -115 10 -16 3 -46 7 -65 10 -19 3 -48 9 -65 15 -16 5 -73 14 -125
20 -52 6 -112 13 -132 16 -26 4 -38 1 -38 -7 0 -9 -3 -10 -14 -1 -7 6 -27 12
-42 12 -34 0 -221 6 -381 13 -100 4 -111 2 -124 -15 -16 -22 -35 -24 -54 -5
-11 10 -11 16 -2 26 10 10 8 10 -8 3 -11 -6 -58 -11 -104 -12 -46 -1 -87 -2
-90 -3 -3 0 -8 1 -11 2 -3 1 -20 3 -39 5 -19 2 -44 5 -55 7 -12 3 -84 1 -161
-4z m845 -123 c107 -4 218 -9 245 -12 28 -4 75 -7 105 -7 30 -1 57 -4 60 -8 3
-4 39 -10 80 -13 40 -3 106 -12 144 -19 39 -8 136 -17 216 -20 79 -4 147 -10
150 -15 3 -4 28 -11 55 -14 28 -4 79 -14 115 -22 36 -9 110 -21 165 -26 55 -6
123 -16 150 -24 28 -8 70 -20 95 -26 25 -6 54 -15 65 -19 36 -15 60 -23 72
-26 38 -8 83 -27 83 -35 0 -6 5 -7 10 -4 6 3 10 -1 10 -9 0 -14 52 -46 76 -46
7 0 14 -4 16 -8 5 -14 93 -70 137 -88 22 -9 41 -20 41 -24 0 -4 14 -13 30 -20
17 -7 30 -15 30 -19 0 -3 17 -14 38 -24 21 -10 55 -34 76 -53 20 -19 41 -34
46 -34 5 0 28 -19 52 -42 24 -24 55 -49 71 -57 15 -8 27 -19 27 -25 0 -12 35
-46 48 -46 4 0 14 -10 22 -21 8 -12 28 -33 44 -48 15 -14 49 -47 75 -73 26
-27 52 -48 59 -48 7 0 12 -5 12 -11 0 -6 22 -34 50 -62 87 -91 140 -154 140
-165 0 -6 9 -17 21 -26 12 -8 33 -32 47 -53 14 -21 28 -40 32 -43 17 -13 70
-125 75 -158 10 -75 15 -129 21 -202 4 -41 8 -77 10 -79 2 -2 -1 -10 -7 -17
-6 -7 -13 -86 -16 -183 -4 -123 -9 -171 -18 -171 -8 0 -14 -32 -19 -97 -8
-128 -16 -173 -30 -173 -6 0 -24 -7 -41 -16 -16 -8 -53 -22 -82 -29 -28 -7
-62 -19 -75 -26 -23 -13 -29 -14 -85 -17 -17 -1 -38 -8 -45 -15 -7 -8 -19 -12
-26 -9 -7 2 -24 -3 -37 -12 -13 -9 -36 -16 -50 -16 -14 0 -28 -6 -31 -13 -3
-8 -17 -11 -38 -9 -19 2 -37 -1 -40 -7 -4 -6 -18 -11 -32 -11 -27 0 -273 -68
-289 -80 -5 -4 -40 -10 -77 -14 -74 -7 -100 -14 -93 -25 2 -4 -9 -6 -24 -3
-25 3 -79 -3 -181 -22 -28 -5 -606 -20 -630 -16 -8 1 -167 3 -353 4 -185 0
-337 4 -337 7 0 4 -45 6 -100 5 -55 0 -101 2 -103 6 -1 4 -74 10 -162 14 -88
4 -167 10 -175 14 -8 4 -107 11 -220 14 -113 4 -245 10 -295 13 -98 6 -109 6
-173 0 -24 -3 -67 2 -95 9 -29 8 -142 21 -252 29 -110 7 -274 21 -365 29 -91
8 -232 17 -315 20 -82 3 -172 8 -200 10 -27 3 -88 7 -135 10 -159 11 -290 25
-307 34 -26 14 -144 31 -264 38 -57 3 -117 10 -134 15 -16 4 -66 13 -110 18
-44 6 -102 17 -130 25 -27 8 -90 21 -140 29 -49 8 -121 22 -160 31 -38 9 -82
16 -97 16 -15 0 -53 7 -85 16 -65 17 -145 34 -183 38 -14 2 -37 9 -52 16 -23
11 -28 20 -32 64 -3 28 -3 65 -2 81 2 17 4 119 5 228 1 168 3 197 16 197 18 0
19 12 4 27 -9 9 -6 25 10 64 13 29 25 65 27 82 2 16 7 34 12 41 4 6 14 29 21
51 16 51 19 58 83 192 38 81 59 113 75 117 11 3 25 19 31 34 11 31 19 41 233
260 82 83 153 152 158 152 5 0 25 14 43 30 18 17 58 43 88 58 30 14 74 41 97
59 24 18 50 33 58 33 8 0 23 8 33 18 16 16 82 52 96 52 3 0 30 16 60 35 30 19
58 35 61 35 4 0 18 9 32 20 14 11 33 20 42 20 9 0 39 12 66 25 28 14 54 25 58
25 4 0 27 9 49 20 23 11 48 20 57 20 8 0 28 4 45 9 17 6 58 17 91 26 33 9 89
25 125 35 36 10 110 26 165 35 55 9 114 22 130 27 35 12 89 24 195 42 105 19
181 36 210 47 50 19 291 30 670 31 173 0 347 4 385 8 39 4 77 6 85 4 8 -2 103
-6 210 -9z"/>
<path d="M4100 14414 c-66 -46 -71 -53 -66 -85 5 -34 22 -59 41 -59 23 0 74
31 93 57 19 26 19 27 -2 70 -12 23 -23 43 -26 42 -3 0 -21 -11 -40 -25z"/>
<path d="M5398 14352 c-48 -34 -109 -107 -106 -124 10 -45 95 -44 162 3 53 38
60 71 25 120 -25 35 -34 36 -81 1z"/>
<path d="M2635 14088 c-26 -30 -59 -122 -45 -126 5 -2 10 -10 10 -17 0 -26 44
-25 72 2 16 15 28 31 28 36 0 4 6 15 14 23 24 23 -9 104 -43 104 -9 0 -25 -10
-36 -22z"/>
<path d="M4613 14043 c-4 -10 -11 -21 -17 -25 -17 -11 -20 -122 -3 -136 12
-10 23 -4 62 32 42 39 47 48 41 73 -16 64 -67 98 -83 56z"/>
<path d="M7297 13992 c-57 -16 -71 -42 -61 -109 6 -42 7 -43 46 -43 31 0 41 4
45 19 2 10 22 27 44 37 21 11 39 22 39 27 0 4 10 7 23 7 12 0 28 4 35 9 17 10
11 47 -7 43 -6 -1 -19 4 -27 13 -18 18 -70 17 -137 -3z"/>
<path d="M3643 13916 c-13 -6 -23 -14 -23 -18 0 -3 -6 -13 -13 -20 -8 -7 -18
-27 -24 -43 -18 -55 50 -94 94 -54 31 27 53 59 53 73 0 25 -34 76 -50 75 -8
-1 -25 -6 -37 -13z"/>
<path d="M5610 13736 c0 -18 -26 -67 -39 -76 -6 -3 -12 -30 -13 -59 -2 -47 1
-56 26 -78 27 -23 29 -23 47 -7 11 9 19 28 19 41 0 14 7 31 15 39 28 28 30 65
5 111 -22 42 -60 60 -60 29z"/>
<path d="M6712 13600 c-15 -25 -16 -111 0 -145 8 -18 19 -25 38 -25 28 0 55
21 43 33 -3 4 -2 7 4 7 17 0 -10 96 -34 124 -27 31 -34 32 -51 6z"/>
<path d="M2846 13468 c-9 -12 -16 -28 -16 -34 0 -6 -7 -17 -15 -24 -8 -6 -14
-24 -13 -38 0 -15 -3 -37 -7 -50 -7 -22 -6 -23 45 -21 37 2 58 8 69 21 8 10
23 18 33 18 15 0 18 8 18 44 0 38 -5 48 -35 75 -42 37 -59 39 -79 9z"/>
<path d="M3470 12030 c-28 -14 -155 -40 -192 -40 -21 0 -38 -5 -38 -11 0 -7
-12 -10 -29 -7 -17 2 -28 1 -26 -3 6 -9 -20 -19 -49 -19 -12 0 -26 -4 -32 -10
-5 -5 -25 -11 -44 -13 -36 -4 -62 -11 -92 -28 -10 -5 -26 -9 -36 -9 -10 0 -35
-9 -57 -20 -22 -11 -47 -20 -56 -20 -9 0 -24 -9 -35 -21 -22 -25 -85 -59 -111
-60 -10 0 -31 -9 -48 -20 -16 -10 -37 -21 -45 -24 -8 -4 -33 -15 -55 -26 -22
-10 -45 -19 -52 -19 -7 0 -28 -15 -46 -34 -19 -19 -49 -41 -66 -50 -17 -9 -31
-21 -31 -26 0 -5 -9 -11 -19 -15 -10 -3 -35 -20 -55 -38 -56 -50 -100 -82
-108 -80 -4 2 -7 -1 -5 -5 1 -5 -15 -26 -35 -48 -88 -92 -118 -129 -118 -142
0 -8 -6 -12 -14 -9 -10 4 -13 1 -10 -7 3 -7 -2 -19 -11 -26 -8 -7 -15 -18 -15
-24 0 -7 -5 -23 -12 -37 -10 -21 -20 -26 -53 -27 -45 -2 -125 -23 -125 -33 0
-4 -19 -16 -42 -27 -37 -17 -62 -37 -103 -81 -5 -6 -33 -33 -61 -59 -28 -26
-72 -66 -97 -89 -25 -24 -50 -43 -55 -43 -6 0 -14 -9 -17 -20 -4 -11 -11 -18
-16 -15 -12 8 -11 -5 2 -44 10 -27 15 -32 35 -27 16 4 24 1 26 -11 8 -38 -5
-59 -48 -82 -24 -13 -44 -27 -44 -31 0 -4 -21 -15 -47 -24 -27 -10 -59 -22
-73 -28 -23 -10 -48 -13 -118 -17 -13 0 -21 -5 -18 -10 4 -5 -4 -7 -16 -3 -11
3 -19 1 -16 -4 3 -5 -14 -10 -39 -10 -25 -1 -49 -7 -53 -14 -5 -8 -35 -14 -76
-16 -37 -2 -71 -9 -75 -15 -5 -8 -8 -7 -13 2 -5 11 -7 11 -12 2 -4 -10 -8 -10
-18 0 -8 8 -29 11 -55 9 -36 -4 -41 -7 -41 -28 0 -13 -4 -24 -9 -24 -5 0 -8
-11 -8 -25 0 -20 2 -23 13 -14 11 9 15 8 20 -4 3 -8 19 -21 35 -27 16 -7 26
-16 23 -21 -3 -5 2 -6 10 -3 8 3 20 3 27 -1 22 -14 240 -21 354 -11 80 7 225
44 225 59 0 4 11 7 25 7 14 0 25 4 25 9 0 4 27 14 60 21 33 7 64 19 68 26 4 7
21 14 37 16 17 1 29 8 28 14 -1 6 8 9 21 7 l23 -5 -28 -55 c-30 -60 -31 -102
-5 -129 9 -8 16 -19 16 -23 0 -4 9 -19 20 -32 42 -47 63 -91 64 -134 1 -58 33
-80 91 -64 52 15 99 0 198 -60 20 -13 37 -27 37 -32 0 -5 4 -9 9 -9 5 0 30
-20 55 -45 26 -25 51 -45 57 -45 14 0 31 -18 54 -57 10 -18 21 -30 25 -28 3 2
7 -13 8 -33 3 -40 28 -86 42 -77 4 3 11 -8 15 -24 8 -36 20 -39 125 -29 89 8
98 6 208 -43 43 -19 69 -18 56 3 -4 6 2 8 17 4 13 -3 19 -3 13 -1 -11 6 0 59
24 118 7 16 12 33 12 38 0 16 27 39 45 39 9 0 13 5 10 10 -3 6 -1 10 4 10 6 0
11 -5 11 -11 0 -6 16 -9 38 -7 30 2 38 7 40 26 4 23 -30 104 -55 133 -8 9 -15
26 -16 38 -1 13 -6 20 -14 17 -14 -6 -14 15 0 25 4 3 9 17 11 31 4 43 28 58
86 55 51 -3 76 -17 137 -74 13 -13 28 -23 33 -23 14 0 90 -72 90 -85 0 -18 71
-76 83 -68 7 4 7 0 -1 -9 -10 -13 -10 -18 -1 -24 8 -4 9 -3 5 4 -13 21 12 13
43 -14 17 -14 29 -30 26 -35 -4 -5 1 -6 11 -2 13 5 15 2 9 -15 -3 -13 -2 -22
3 -22 6 0 12 5 14 11 2 6 18 -4 36 -21 18 -17 30 -35 27 -39 -2 -5 3 -8 12 -7
9 0 18 -5 20 -12 3 -8 -1 -10 -14 -5 -10 3 -15 3 -11 -1 3 -4 12 -8 20 -10 7
-1 28 -12 46 -25 25 -17 31 -28 26 -43 -8 -27 10 -38 62 -38 36 0 45 5 70 37
15 20 22 33 16 29 -7 -4 -12 -3 -12 2 0 5 9 12 19 15 10 2 24 15 31 27 8 15 8
20 1 16 -6 -4 -11 -4 -11 1 0 14 14 30 38 42 16 9 22 19 19 32 -5 20 9 27 15
8 2 -6 5 13 6 42 1 29 -5 75 -14 101 -8 26 -13 52 -9 58 3 6 -1 13 -9 16 -9 3
-24 23 -33 43 -9 20 -19 38 -22 41 -10 9 -31 45 -37 63 -4 9 -12 17 -19 17 -6
0 -17 11 -23 25 -13 28 -5 33 13 9 6 -9 24 -16 40 -16 18 0 29 -7 32 -19 3
-11 10 -19 15 -19 5 0 6 5 3 10 -3 6 -1 10 4 10 6 0 11 -4 11 -9 0 -5 11 -12
24 -15 14 -3 27 -16 31 -29 11 -38 28 -67 37 -61 5 3 7 2 6 -3 -1 -4 8 -28 21
-53 24 -44 24 -44 5 -98 -13 -41 -15 -60 -8 -80 8 -20 7 -35 -3 -57 l-14 -30
5 40 c5 37 4 38 -9 21 -8 -11 -15 -25 -15 -32 0 -6 -20 -34 -45 -60 -25 -27
-44 -56 -44 -64 1 -8 -3 -26 -8 -40 -6 -14 -9 -28 -6 -32 2 -4 6 -26 8 -49 3
-24 8 -45 13 -48 19 -13 34 -55 28 -82 -3 -17 -1 -29 5 -29 6 0 8 4 4 9 -3 5
-1 12 4 15 10 6 25 -22 22 -41 -1 -6 6 -10 16 -9 10 2 24 -5 31 -15 7 -11 20
-19 28 -19 8 0 14 -4 14 -9 0 -4 28 -9 63 -11 95 -4 105 -3 122 14 9 8 32 18
53 21 20 4 45 9 55 12 9 2 17 0 17 -6 0 -5 10 -13 23 -17 12 -4 25 -11 28 -16
4 -6 18 -11 33 -11 14 -1 26 -5 26 -8 0 -3 27 -34 60 -69 33 -35 60 -66 60
-70 0 -12 82 -50 92 -44 5 3 14 1 21 -4 23 -17 57 -20 71 -6 8 8 19 14 24 14
5 0 22 12 37 26 16 15 42 35 59 45 29 18 30 18 48 -3 10 -12 18 -25 18 -29 0
-12 29 -25 71 -33 33 -6 41 -2 87 39 44 40 55 45 96 45 25 0 46 -4 46 -9 0
-17 155 -46 184 -35 9 3 16 12 16 20 0 18 -31 54 -41 48 -4 -2 -10 15 -14 38
-9 62 -25 99 -57 132 -15 17 -28 36 -28 43 0 7 -7 13 -15 13 -8 0 -15 5 -15
10 0 6 -4 10 -10 10 -13 0 -42 30 -58 60 -18 33 -77 70 -112 70 -36 0 -61 -10
-55 -20 3 -5 -5 -11 -17 -15 -13 -3 -37 -14 -54 -22 l-32 -16 -48 48 c-37 38
-54 48 -80 48 -18 0 -39 -4 -46 -10 -39 -30 -105 -53 -159 -57 -87 -6 -113 5
-126 56 -12 44 -1 88 22 88 7 0 18 6 24 14 11 13 65 30 87 27 6 -1 17 6 24 14
7 8 18 15 26 15 7 0 15 9 19 19 3 11 27 29 53 40 26 12 54 26 62 31 8 6 25 15
38 22 12 6 22 18 22 25 0 8 5 11 10 8 6 -3 10 -1 10 5 0 6 4 9 9 6 5 -3 12 6
15 19 4 14 11 23 16 20 6 -3 10 -3 10 2 1 26 17 33 43 20 15 -8 25 -17 22 -21
-3 -3 0 -2 7 4 8 6 15 4 22 -6 8 -10 38 -16 106 -19 52 -3 142 -8 200 -11 181
-11 403 -12 463 -3 31 5 81 13 111 17 30 5 61 13 68 19 7 6 27 13 43 16 17 3
53 11 80 16 28 5 71 10 96 10 25 1 74 12 109 26 35 14 72 25 82 25 10 0 18 4
18 9 0 5 15 16 33 25 29 15 85 52 112 74 6 4 29 13 51 20 23 7 47 19 54 27 17
21 165 21 206 0 32 -16 59 -61 69 -119 4 -20 11 -39 16 -42 5 -3 9 -13 9 -22
0 -19 93 -67 148 -77 17 -4 32 -10 32 -15 0 -5 10 -12 22 -15 11 -4 35 -20 52
-35 17 -16 41 -37 53 -47 45 -38 59 -51 76 -73 25 -30 67 -106 67 -120 0 -7
13 -31 28 -54 41 -61 82 -154 82 -187 0 -15 5 -31 11 -35 20 -12 -17 -201 -38
-197 -6 1 -10 -5 -9 -15 0 -9 -4 -17 -11 -17 -6 0 -15 -3 -19 -7 -4 -5 -15 -8
-25 -8 -22 0 -39 -52 -21 -58 7 -2 12 -8 12 -12 0 -15 -44 -57 -67 -64 -12 -4
-25 -16 -28 -27 -4 -10 -10 -19 -15 -19 -15 0 -71 -60 -65 -70 3 -5 1 -10 -4
-10 -6 0 -11 -9 -11 -21 0 -13 4 -18 12 -13 8 5 9 2 5 -9 -3 -9 -2 -19 3 -22
5 -3 7 -11 5 -18 -5 -14 86 -61 124 -64 13 -1 30 -4 37 -7 7 -3 15 3 17 12 4
15 5 15 6 1 1 -13 16 -18 64 -24 91 -10 168 -11 201 -1 24 7 27 6 21 -5 -4 -8
2 -4 15 9 l22 24 -25 26 c-34 35 -43 88 -21 113 18 20 30 39 63 103 23 43 28
115 10 133 -13 13 9 67 29 69 6 1 21 2 32 3 32 2 46 43 31 93 -7 24 -20 50
-30 59 -26 26 -51 59 -51 67 0 4 -9 18 -20 32 -11 14 -20 33 -20 43 0 10 -4
15 -10 12 -5 -3 -10 4 -10 15 0 12 -10 35 -21 52 -22 30 -22 31 -7 176 1 6 5
12 9 12 4 0 9 35 11 78 3 66 1 84 -19 123 -13 26 -23 53 -23 61 0 28 -25 66
-57 88 -18 12 -33 28 -33 34 0 6 -17 30 -38 54 -33 37 -39 53 -50 123 -11 65
-11 87 0 117 7 20 16 39 19 42 24 18 58 119 64 188 4 42 12 88 18 102 24 58
28 124 10 150 -9 13 -20 60 -24 109 -10 95 -23 135 -55 167 -11 12 -31 48 -43
80 -13 33 -29 70 -36 84 -15 28 -41 127 -40 150 1 32 17 80 26 80 5 0 9 7 9
15 0 8 3 15 8 15 4 0 13 14 20 30 9 19 21 30 34 30 18 0 48 21 48 34 0 13 43
47 60 49 10 1 16 5 13 10 -3 4 4 11 16 14 12 3 21 10 21 15 0 5 4 7 9 4 5 -4
11 -1 13 5 5 14 74 39 110 39 26 0 77 -18 88 -31 3 -3 13 -8 23 -12 10 -4 23
-20 28 -36 6 -16 19 -31 30 -34 11 -3 23 -15 26 -26 3 -12 9 -21 14 -21 5 0 9
-6 9 -14 0 -8 4 -16 9 -18 5 -1 11 -10 13 -18 2 -8 18 -30 35 -50 18 -19 31
-41 28 -49 -3 -9 0 -11 10 -7 19 7 21 -24 3 -42 -9 -9 -10 -15 -2 -20 6 -4 14
-16 18 -27 4 -11 27 -35 52 -54 24 -19 42 -36 39 -40 -3 -3 -10 1 -15 9 -6 8
-10 10 -10 4 0 -6 11 -21 24 -33 13 -12 32 -37 42 -56 21 -39 50 -58 91 -57
15 0 33 -3 38 -6 22 -14 52 -11 114 9 61 20 87 38 111 81 14 24 -26 64 -72 73
-21 4 -42 13 -49 21 -6 8 -17 14 -23 14 -6 0 -20 14 -29 30 -16 26 -24 30 -63
30 -24 0 -44 -4 -44 -10 0 -25 -37 -7 -55 27 -18 34 -103 143 -139 179 -9 8
-16 24 -16 34 0 11 -8 24 -17 29 -10 5 -31 35 -48 68 -16 32 -33 60 -38 61 -4
2 -13 9 -20 16 -22 21 -110 76 -123 76 -6 0 -14 6 -17 14 -3 7 -24 18 -46 24
-36 9 -43 8 -51 -8 -15 -27 -38 -32 -60 -10 -17 17 -25 18 -67 9 -27 -6 -56
-11 -65 -12 -10 -1 -18 -4 -18 -7 0 -3 -9 -6 -20 -7 -11 -1 -27 -9 -36 -17 -8
-9 -22 -16 -29 -16 -8 0 -18 -6 -22 -12 -7 -12 -61 -44 -119 -72 -11 -5 -31
-25 -45 -43 -27 -38 -78 -70 -88 -55 -3 5 -15 8 -26 6 -11 -2 -22 2 -26 7 -3
6 -17 11 -30 12 -13 0 -27 6 -31 12 -5 7 -8 6 -8 -1 0 -8 -13 -9 -40 -4 -22 4
-40 5 -40 2 0 -2 -6 0 -12 4 -27 19 -461 6 -493 -14 -5 -4 -17 -7 -25 -8 -8 0
-22 -3 -30 -7 -8 -3 -40 -8 -70 -11 -30 -4 -64 -7 -75 -9 -11 -1 -23 -5 -26
-10 -3 -4 -34 -10 -70 -13 -35 -4 -69 -10 -74 -14 -6 -5 -31 -8 -57 -8 -26 0
-56 -3 -66 -6 -13 -4 -22 -1 -25 9 -5 12 -26 15 -119 14 -121 -2 -213 -2 -291
-1 -27 1 -85 10 -130 21 -45 11 -122 21 -172 22 -49 1 -96 7 -102 12 -7 5 -13
7 -13 3 0 -3 -15 3 -32 14 -18 11 -40 20 -48 20 -13 0 -35 9 -122 52 -10 4
-26 8 -37 8 -11 0 -35 15 -54 33 -20 17 -43 33 -54 35 -10 2 -29 11 -42 20
-68 48 -107 72 -119 72 -7 0 -28 11 -46 25 -18 14 -42 25 -52 25 -11 0 -30 8
-44 17 -13 9 -49 21 -79 25 -31 5 -69 11 -85 13 -16 2 -34 9 -40 15 -5 5 -19
10 -30 10 -12 0 -39 6 -60 14 -28 10 -48 11 -68 4 -19 -7 -39 -6 -64 2 -20 7
-84 13 -143 14 -58 0 -111 5 -118 9 -15 10 -162 7 -183 -3z m364 -636 c36 -4
55 -13 69 -30 10 -13 27 -24 37 -24 10 0 30 -7 46 -14 15 -8 31 -13 34 -11 13
8 37 -29 55 -85 22 -68 25 -167 6 -179 -7 -5 -10 -14 -7 -20 4 -6 3 -11 -1
-11 -13 0 -42 -69 -33 -75 5 -3 12 0 16 6 3 6 9 7 13 3 8 -12 72 -34 65 -23
-10 16 17 9 43 -11 23 -18 23 -25 1 -21 -5 0 -8 -4 -8 -10 0 -5 10 -9 23 -7
15 2 21 -2 19 -12 -2 -8 4 -20 13 -26 9 -6 14 -16 13 -21 -3 -8 20 -61 53
-125 16 -31 10 -66 -25 -133 -34 -66 -66 -105 -86 -105 -5 0 -10 -4 -10 -9 0
-29 -133 -55 -143 -28 -4 9 -7 9 -14 0 -5 -7 -14 -9 -22 -3 -8 4 -110 6 -227
3 -137 -3 -218 -2 -230 5 -17 10 -19 30 -21 292 -2 155 0 287 4 293 4 7 6 47
4 89 -1 47 2 78 8 78 8 0 6 94 -4 110 -6 10 21 39 46 49 23 9 23 10 2 10 -12
1 -25 -3 -28 -9 -14 -22 -25 -8 -25 31 l0 41 133 -6 c72 -3 154 -8 181 -12z
m907 -89 c25 -1 49 -4 55 -7 5 -3 42 -4 82 -3 39 1 72 -2 72 -7 0 -4 19 -6 41
-4 23 2 66 -3 96 -11 30 -8 57 -12 60 -10 2 3 18 1 34 -3 24 -7 29 -6 29 8 1
15 3 14 15 -2 8 -11 15 -14 15 -8 0 19 38 14 44 -5 9 -30 4 -325 -6 -373 -6
-25 -10 -60 -9 -79 0 -18 -6 -46 -14 -62 -8 -15 -15 -49 -15 -74 0 -46 -18
-101 -42 -131 -59 -72 -103 -98 -198 -117 -60 -12 -229 -14 -300 -3 -45 7 -98
14 -113 15 -5 1 -6 5 -2 10 3 6 -3 15 -13 20 -19 10 -40 53 -40 81 0 8 -6 40
-12 70 -7 30 -14 69 -16 85 -11 118 -11 154 -3 251 6 60 12 145 14 189 2 44 8
97 13 119 6 21 8 45 5 53 -5 13 5 14 78 8 46 -4 105 -9 130 -10z m1077 -10 c2
-2 2 -14 0 -26 -3 -22 -4 -22 -18 -8 -14 15 -16 15 -28 0 -12 -14 -13 -14 -8
2 3 11 2 16 -4 12 -21 -13 -10 -35 19 -35 27 0 29 -3 39 -57 5 -32 9 -74 8
-93 -1 -32 2 -35 30 -38 28 -3 32 1 49 42 10 24 23 42 30 40 6 -3 20 5 31 17
10 13 13 19 5 14 -8 -4 -6 3 5 21 13 18 14 25 5 20 -10 -7 -12 -5 -6 5 20 35
28 41 36 27 7 -10 11 -10 21 1 10 10 10 12 1 7 -18 -10 -16 9 2 24 8 6 23 9
36 5 11 -4 69 -7 128 -6 123 1 211 -7 211 -21 0 -5 -11 -19 -25 -32 -14 -13
-25 -27 -25 -31 0 -9 -78 -124 -97 -143 -7 -7 -20 -28 -28 -46 -9 -18 -27 -39
-40 -46 -13 -7 -31 -27 -39 -44 -18 -37 -70 -96 -85 -96 -18 0 -13 -30 12 -69
12 -20 22 -43 23 -51 1 -8 2 -25 3 -37 0 -12 10 -24 21 -28 13 -4 20 -15 20
-32 0 -15 3 -23 7 -20 11 12 32 -14 26 -31 -3 -9 -3 -14 2 -10 10 10 51 -41
59 -76 4 -15 12 -34 19 -42 20 -23 31 -38 50 -72 l18 -32 -28 1 c-15 0 -94 6
-175 12 -146 10 -147 11 -158 38 -6 14 -13 35 -14 45 -2 11 -8 19 -15 19 -14
0 -52 56 -45 66 2 4 -5 10 -16 14 -11 3 -20 11 -20 16 0 6 5 7 10 4 6 -3 10
-2 10 3 0 6 -7 13 -16 16 -8 3 -12 10 -9 16 3 6 -1 7 -9 4 -11 -4 -16 0 -16
10 0 9 -4 16 -9 16 -5 0 -16 7 -25 15 -17 18 -17 19 -19 -82 -1 -35 -6 -63
-12 -63 -5 0 -5 -4 2 -8 8 -5 7 -20 -5 -56 l-17 -50 -98 0 c-55 -1 -101 2
-104 7 -6 10 -61 9 -67 -2 -3 -4 7 -6 22 -3 15 3 23 1 19 -4 -14 -15 -42 -13
-54 3 -8 10 -13 12 -13 5 0 -7 -5 -12 -11 -12 -11 0 -10 57 5 185 3 22 6 64 7
93 2 34 8 56 17 61 10 6 11 10 3 15 -15 10 -14 66 2 67 9 0 9 2 -1 6 -10 4
-10 8 -1 19 8 10 8 14 0 14 -14 0 -14 65 0 150 6 36 12 101 13 145 2 44 7 88
11 98 4 9 5 29 2 42 -6 34 7 40 45 21 34 -18 51 -21 28 -6 -13 8 -12 10 3 10
9 0 17 7 17 16 0 11 -5 14 -16 10 -9 -4 -26 -3 -38 1 -17 6 -14 8 19 13 39 5
257 1 263 -5z"/>
<path d="M6482 9988 c7 -4 11 -8 8 -8 -3 -1 -30 -3 -60 -6 -55 -5 -177 -57
-193 -81 -4 -7 -15 -13 -22 -13 -8 0 -15 -5 -15 -11 0 -5 -4 -7 -10 -4 -10 6
-18 -21 -19 -65 0 -13 -7 -30 -16 -36 -9 -7 -14 -16 -13 -21 2 -5 -27 -38 -64
-74 -38 -36 -68 -72 -68 -81 0 -8 -11 -25 -25 -38 -23 -22 -29 -23 -58 -12
-19 7 -43 12 -54 12 -29 0 -83 -53 -83 -82 0 -13 -7 -34 -16 -46 -8 -12 -12
-27 -8 -34 4 -7 3 -8 -4 -4 -7 4 -30 -12 -55 -36 -23 -24 -69 -56 -101 -71
-53 -26 -57 -31 -51 -55 8 -32 41 -56 78 -57 16 -1 31 -5 35 -11 4 -6 15 -13
25 -17 10 -4 15 -11 12 -17 -3 -6 1 -7 9 -4 9 3 16 1 16 -5 0 -6 6 -11 14 -11
8 0 21 -6 28 -14 8 -7 34 -16 59 -19 60 -7 139 -27 139 -36 0 -7 8 -9 83 -14
26 -2 47 0 47 4 0 5 6 6 13 4 20 -8 36 9 39 40 4 66 -2 96 -28 122 -27 26 -45
75 -21 54 8 -6 18 -6 27 -1 13 8 12 10 -2 10 -11 0 -15 5 -12 14 4 10 24 14
65 15 32 1 67 2 77 3 37 2 66 56 79 147 22 150 30 185 52 234 11 27 21 55 21
63 0 8 5 14 10 14 6 0 10 7 10 15 0 23 76 96 102 99 52 6 78 18 78 37 0 10 6
19 13 19 8 0 19 12 25 26 10 20 9 28 -2 40 -17 16 -36 19 -36 4 0 -15 -60 -12
-65 3 -3 6 -21 12 -40 13 -22 0 -31 -3 -23 -8z"/>
<path d="M3507 9462 c8 -5 2 -12 -18 -21 -30 -13 -31 -15 -25 -65 9 -79 7
-120 -8 -128 -7 -4 -19 -21 -26 -37 -6 -16 -31 -42 -56 -57 -38 -24 -43 -31
-38 -53 4 -14 8 -44 11 -66 3 -22 9 -44 14 -49 21 -22 6 -65 -38 -115 -13 -14
-23 -32 -23 -39 0 -7 -7 -23 -15 -36 -29 -44 -29 -106 0 -106 8 0 12 -6 9 -13
-4 -11 11 -13 66 -12 39 0 74 -4 77 -9 4 -5 1 -6 -7 -1 -9 5 -11 4 -6 -3 9
-14 122 -16 130 -3 4 5 25 12 48 16 29 5 51 17 70 39 26 28 28 37 27 104 -1
51 -8 82 -21 105 -10 18 -21 40 -24 50 -4 9 -13 17 -20 17 -22 0 -16 17 7 23
13 4 18 10 13 18 -4 7 -3 10 4 5 6 -3 13 -2 17 4 4 6 11 8 16 5 5 -4 9 8 9 25
0 18 -4 29 -10 25 -6 -4 -7 1 -3 11 4 11 -4 25 -25 44 -24 21 -32 36 -33 69
-2 24 2 45 9 50 6 3 14 32 17 63 6 51 4 58 -22 86 -28 30 -91 62 -122 62 -11
0 -12 -3 -4 -8z"/>
<path d="M2829 9356 c-5 -6 -106 -24 -204 -37 -177 -23 -360 -55 -375 -64 -6
-4 -28 -8 -48 -10 -42 -3 -140 -28 -168 -43 -48 -25 -154 -61 -199 -69 -30 -4
-75 -23 -85 -34 -3 -3 -32 -14 -65 -24 -62 -19 -125 -52 -125 -64 0 -5 -30
-23 -67 -42 -38 -18 -78 -45 -90 -58 -19 -22 -20 -27 -8 -45 11 -15 12 -23 3
-34 -7 -8 -13 -21 -14 -30 -3 -20 -37 -86 -46 -90 -5 -2 -8 -17 -8 -33 0 -16
-4 -29 -10 -29 -5 0 -10 -11 -10 -25 0 -14 -4 -33 -9 -43 -52 -97 -56 -115
-56 -232 1 -63 3 -131 7 -150 3 -19 9 -60 13 -90 4 -30 13 -77 21 -105 7 -27
16 -75 20 -105 6 -59 52 -192 64 -185 4 2 7 -12 8 -31 2 -46 6 -52 47 -60 19
-3 39 -12 46 -20 6 -8 20 -14 30 -14 11 0 19 -4 19 -10 0 -5 7 -10 15 -10 8 0
23 -4 33 -9 9 -5 28 -13 42 -19 14 -5 42 -17 63 -27 20 -9 42 -13 47 -10 6 3
10 2 10 -2 0 -18 155 -67 175 -56 5 4 7 3 3 -2 -19 -21 204 -117 231 -100 6 3
11 -1 11 -9 0 -10 9 -16 24 -16 14 0 28 -4 31 -10 3 -5 13 -10 21 -10 9 0 22
-7 30 -15 13 -12 54 -20 85 -17 4 1 62 -17 130 -39 68 -22 130 -38 139 -37 8
1 20 -1 26 -4 6 -4 27 -8 47 -10 20 -1 39 -8 41 -15 3 -7 19 -13 35 -13 16 0
32 -4 35 -9 3 -5 23 -11 43 -14 71 -11 108 -18 128 -27 19 -8 101 -20 155 -24
14 0 27 -3 30 -6 9 -10 195 -52 237 -53 23 -1 39 -5 36 -9 -7 -12 12 -9 24 3
8 8 26 8 65 0 30 -7 67 -11 84 -11 37 1 120 -7 131 -12 4 -2 21 -5 38 -6 16
-1 34 -7 39 -12 6 -6 45 -10 87 -10 43 0 80 -4 84 -10 3 -5 61 -10 128 -10
121 -2 184 -4 347 -15 192 -12 283 -14 299 -6 9 5 43 5 77 0 34 -5 137 -10
230 -13 93 -2 230 -7 304 -11 74 -3 234 -8 355 -11 178 -3 225 -1 248 10 19
11 27 12 27 3 0 -8 3 -8 8 -2 8 12 44 17 37 5 -2 -4 18 -7 45 -7 27 0 48 3 45
7 -2 4 2 7 10 7 8 0 15 -4 15 -9 0 -15 417 9 439 26 11 8 13 8 7 -1 -8 -14 55
-9 107 7 15 5 81 15 146 22 99 10 118 15 114 28 -4 13 -3 13 5 0 10 -12 17
-12 59 3 26 9 72 17 101 17 29 0 62 5 73 11 11 6 35 11 52 11 18 0 44 7 59 14
15 8 36 14 48 14 12 0 19 4 16 9 -3 5 10 9 29 8 18 0 44 4 57 10 13 6 52 16
88 22 86 15 240 62 240 73 0 4 11 8 24 8 13 0 29 6 35 14 6 7 32 16 57 19 24
2 53 12 63 21 10 9 28 16 42 16 13 0 42 5 64 11 22 7 49 12 60 13 12 1 25 13
34 34 8 17 21 32 29 32 17 0 49 34 58 62 8 25 40 58 49 50 3 -3 8 4 12 16 3
12 9 22 14 22 5 0 9 14 9 31 0 20 4 28 12 23 8 -5 9 -2 5 10 -6 14 -3 17 8 12
10 -4 19 3 27 19 6 13 15 22 19 19 9 -5 39 48 39 71 0 8 3 15 8 15 7 0 32 50
36 73 1 6 8 22 14 34 7 13 13 40 14 60 1 21 8 53 15 72 8 18 13 48 12 65 -1
17 4 45 10 61 7 17 14 87 16 157 4 106 1 133 -13 157 -14 25 -14 33 -3 54 9
18 11 37 6 64 -5 21 -8 41 -7 46 1 4 -7 24 -18 44 -11 21 -20 42 -20 48 0 5
-13 17 -29 26 -22 13 -28 22 -24 40 9 48 -50 144 -114 186 -13 9 -23 22 -23
29 0 8 -10 14 -25 14 -14 0 -25 4 -25 9 0 5 -13 14 -30 21 -16 7 -30 16 -30
20 0 4 -25 15 -55 25 -30 9 -55 21 -55 27 0 6 -9 8 -20 5 -11 -3 -18 -1 -15 3
7 12 -28 22 -51 14 -15 -5 -16 -4 -5 4 12 9 9 12 -15 17 -16 3 -48 10 -71 16
-61 13 -69 12 -81 -16 -12 -26 -6 -59 9 -49 5 3 6 -2 3 -10 -5 -14 18 -22 86
-29 8 -1 17 -4 20 -7 10 -10 101 -50 114 -50 7 0 19 -7 26 -15 7 -8 23 -15 37
-15 13 0 26 -7 29 -15 4 -8 12 -15 20 -15 7 0 29 -16 48 -35 20 -19 42 -35 51
-35 29 0 105 -90 105 -125 0 -17 -10 -27 -41 -39 -22 -9 -65 -32 -95 -51 -30
-19 -59 -35 -66 -35 -18 0 -191 -61 -228 -81 -19 -11 -45 -19 -57 -19 -13 0
-32 -4 -43 -10 -11 -5 -29 -14 -40 -20 -11 -5 -58 -19 -106 -29 -48 -11 -90
-23 -93 -28 -3 -4 -15 -9 -26 -10 -39 -4 -111 -19 -121 -26 -6 -3 -32 -7 -60
-8 -27 -1 -51 -6 -54 -11 -4 -4 -22 -9 -42 -10 -20 -2 -34 -6 -32 -10 2 -4 0
-10 -6 -13 -6 -4 -9 -1 -8 7 3 15 -12 15 -112 4 -84 -10 -189 -10 -320 -1 -75
5 -101 4 -90 -4 13 -9 13 -11 -2 -11 -10 0 -18 5 -18 11 0 11 -131 7 -215 -6
-41 -7 -1152 -6 -1290 0 -223 11 -371 25 -575 55 -70 10 -149 16 -330 25 -63
3 -137 8 -165 10 -27 3 -93 7 -145 10 -52 3 -117 10 -145 15 -94 17 -230 39
-275 45 -98 11 -247 34 -280 44 -19 5 -60 14 -90 20 -30 5 -80 15 -110 20 -30
6 -107 18 -170 27 -202 28 -234 33 -290 43 -103 20 -215 44 -235 51 -124 44
-144 49 -270 70 -114 19 -146 26 -180 40 -11 4 -65 22 -120 40 -55 17 -108 36
-118 41 -10 5 -22 7 -27 4 -6 -4 -13 1 -16 9 -3 9 -12 16 -20 16 -8 0 -14 4
-14 9 0 11 95 61 116 61 8 0 14 4 14 8 0 12 103 62 158 77 12 4 22 10 22 15 0
5 17 14 38 20 20 6 46 15 57 20 11 5 36 11 55 14 19 3 60 10 90 16 30 5 75 13
100 16 25 4 50 11 57 16 7 6 45 8 85 6 63 -2 73 -1 76 15 2 11 13 17 30 17 15
0 43 5 62 10 97 28 321 42 399 25 54 -12 73 25 49 92 l-12 33 -81 0 c-69 0
-82 3 -93 20 -11 18 -42 27 -53 16z m-1281 -601 c20 -20 75 -54 122 -76 74
-36 93 -41 149 -40 36 0 81 -4 101 -10 19 -6 60 -20 90 -30 147 -48 280 -77
342 -74 44 2 135 -18 175 -37 12 -6 31 -8 42 -5 12 3 19 2 16 -3 -5 -8 68 -30
100 -30 26 0 87 -8 150 -20 46 -9 116 -18 172 -23 11 -1 19 -6 16 -11 -3 -5 6
-7 20 -4 15 3 24 1 21 -3 -5 -8 18 -14 39 -10 5 1 36 -5 70 -13 143 -32 188
-38 204 -25 10 9 17 9 21 2 4 -6 30 -13 57 -17 99 -11 140 -18 152 -28 7 -6
14 -5 18 2 4 7 11 7 18 2 25 -19 108 -34 267 -47 91 -8 208 -19 260 -25 52 -6
129 -13 170 -15 41 -2 87 -7 103 -11 19 -4 27 -3 27 7 0 11 2 11 8 2 5 -7 36
-13 77 -14 39 -1 81 -6 95 -11 21 -8 143 -17 282 -22 20 0 34 -4 32 -8 -8 -13
75 -25 221 -34 50 -3 124 -9 165 -14 52 -6 79 -5 88 3 10 8 16 7 21 -2 7 -10
12 -9 22 6 13 18 28 19 259 17 135 -1 255 0 268 3 12 3 23 13 23 22 1 13 2 12
6 -2 4 -16 13 -18 59 -15 30 2 54 2 54 -2 0 -3 47 -7 105 -7 58 0 105 3 105 8
0 5 8 9 18 9 14 0 14 -2 3 -9 -9 -6 12 -7 55 -4 38 2 168 3 289 2 350 -5 479
-2 483 11 3 9 7 8 13 -1 8 -12 10 -12 18 0 5 7 14 10 20 7 6 -4 11 0 11 8 0 9
5 16 10 16 6 0 10 -4 10 -8 0 -10 58 -3 65 8 2 4 22 4 44 0 31 -5 38 -4 34 7
-3 8 2 13 17 13 11 0 18 -4 15 -10 -3 -5 1 -10 9 -10 9 0 16 5 16 11 0 5 5 7
10 4 6 -4 8 -11 5 -16 -14 -21 172 18 203 44 7 6 23 12 35 13 77 10 152 28
164 40 13 12 27 16 49 13 4 0 10 3 13 8 7 9 95 43 131 50 14 3 47 16 74 29 27
13 53 21 57 18 5 -3 9 -1 9 3 0 5 17 17 38 27 46 23 53 27 86 50 16 11 31 15
35 10 14 -15 31 -165 26 -234 -11 -169 -57 -406 -84 -433 -6 -6 -11 -21 -11
-33 0 -13 -7 -29 -15 -38 -8 -8 -15 -19 -15 -24 0 -19 -41 -102 -50 -102 -6 0
-10 -9 -10 -19 0 -11 -4 -23 -10 -26 -5 -3 -10 -15 -10 -26 0 -10 -6 -18 -12
-17 -7 2 -12 -3 -10 -9 1 -7 -5 -13 -14 -13 -14 0 -14 -3 -4 -15 11 -13 10
-14 -4 -9 -10 4 -18 0 -23 -12 -4 -11 -15 -25 -26 -33 -15 -11 -16 -15 -6 -22
11 -7 11 -9 2 -10 -7 -1 -17 -3 -23 -4 -5 -1 -16 -3 -24 -4 -8 0 -18 -10 -21
-22 -6 -18 -12 -20 -41 -14 -26 4 -34 3 -34 -9 0 -16 -94 -41 -112 -30 -7 4
-8 2 -4 -4 4 -7 1 -12 -6 -13 -7 0 -4 -4 7 -9 13 -6 15 -9 5 -9 -8 0 -21 3
-29 8 -17 11 -46 -13 -36 -29 3 -5 1 -10 -4 -10 -6 0 -11 9 -11 20 0 18 -2 19
-22 8 -23 -12 -29 -14 -48 -17 -5 0 -10 -10 -10 -21 0 -14 -5 -18 -16 -13 -11
4 -12 8 -4 13 8 5 7 9 -4 13 -11 4 -16 1 -16 -10 0 -12 -3 -13 -14 -3 -18 14
-86 11 -138 -7 -21 -7 -73 -22 -115 -33 -43 -11 -85 -23 -93 -26 -8 -4 -28 -8
-45 -9 -35 -4 -94 -16 -266 -56 -73 -17 -155 -29 -193 -29 -37 0 -77 -5 -88
-11 -12 -7 -38 -13 -57 -15 -74 -7 -207 -22 -236 -28 -47 -9 -302 -17 -498
-16 -143 1 -177 -2 -171 -12 6 -10 4 -10 -7 -2 -8 7 -69 12 -154 12 -249 2
-434 11 -494 23 -33 6 -81 9 -107 6 -27 -2 -97 0 -155 6 -65 6 -126 6 -160 1
-30 -5 -74 -6 -99 -2 -25 3 -153 9 -285 13 -354 9 -425 12 -432 19 -4 3 -36 6
-72 6 -35 0 -92 5 -125 11 -143 25 -175 32 -251 50 -127 32 -167 39 -222 41
-28 1 -50 5 -48 8 2 3 -11 6 -28 7 -31 2 -134 24 -211 44 -32 9 -121 23 -198
31 -9 1 -15 5 -13 8 3 6 -144 45 -305 81 -84 19 -125 31 -150 44 -14 7 -48 20
-75 29 -32 10 -54 24 -60 38 -6 13 -26 26 -50 33 -70 21 -139 38 -157 39 -10
0 -18 3 -18 7 0 9 -48 29 -69 29 -11 0 -21 6 -24 14 -3 7 -22 17 -42 20 -38 7
-50 12 -95 36 -14 8 -40 22 -58 31 -50 26 -61 38 -84 88 -11 25 -33 74 -49
109 -16 35 -32 89 -35 120 -3 31 -9 66 -14 77 -25 61 -51 202 -50 270 0 17 10
48 21 70 11 23 25 79 31 130 13 120 16 131 31 147 7 7 23 30 36 51 12 20 25
37 27 37 3 0 22 -16 42 -35z"/>
<path d="M1356 7156 c-15 -29 -35 -62 -44 -72 -21 -23 -82 -121 -82 -132 0 -5
-16 -26 -35 -48 -19 -21 -38 -48 -41 -59 -6 -19 -61 -104 -74 -115 -3 -3 -16
-22 -28 -44 -22 -37 -22 -39 -5 -60 10 -11 18 -22 18 -22 0 -1 10 -4 21 -8 18
-5 27 3 58 54 20 34 36 63 36 65 0 2 11 16 24 30 13 14 37 51 53 82 l28 57 3
-34 c2 -19 7 -37 11 -40 5 -3 13 -85 18 -184 9 -171 11 -179 34 -197 13 -10
34 -19 47 -19 21 0 22 4 22 74 0 41 -4 76 -9 78 -5 2 -12 66 -16 144 l-7 140
103 31 c57 18 132 39 167 49 34 9 62 20 62 25 0 4 9 11 20 14 30 9 24 28 -14
47 -33 16 -37 16 -153 -19 -65 -19 -120 -39 -123 -43 -4 -7 -108 -40 -125 -40
-3 0 6 24 22 53 42 76 56 97 79 124 12 13 28 38 35 55 12 28 11 32 -10 49 -41
34 -65 25 -95 -35z"/>
<path d="M1868 6963 c-16 -2 -28 -8 -28 -12 0 -4 -12 -13 -27 -20 -75 -34
-137 -115 -160 -210 -3 -14 -10 -28 -14 -31 -5 -3 -13 -38 -19 -77 -11 -72 -1
-180 19 -192 4 -3 16 -20 24 -38 18 -35 54 -62 107 -83 19 -8 38 -18 41 -22
12 -19 138 -30 190 -18 27 7 49 16 49 20 0 5 10 12 23 15 30 10 83 61 98 96 6
16 15 29 19 29 11 0 37 67 56 140 21 83 15 188 -14 251 -23 50 -98 109 -157
123 -16 4 -32 12 -36 17 -6 11 -129 20 -171 12z m178 -98 c110 -46 138 -163
83 -347 -25 -82 -97 -163 -155 -174 -41 -8 -128 2 -158 18 -25 14 -73 63 -88
92 -21 39 -3 256 21 256 4 0 13 15 19 34 17 46 68 108 100 122 38 17 136 17
178 -1z"/>
<path d="M2429 6821 c-24 -24 -29 -47 -68 -311 -23 -157 -45 -294 -47 -306 -7
-28 22 -56 55 -52 21 2 27 9 29 33 2 16 7 32 11 35 4 3 25 122 46 265 36 235
40 256 48 215 5 -25 12 -47 16 -50 4 -3 28 -122 55 -265 26 -143 49 -261 50
-261 39 -31 79 -30 105 4 28 36 91 142 91 153 0 5 9 18 19 28 18 18 37 49 97
160 11 18 28 44 39 57 12 12 33 47 48 76 26 50 27 51 22 18 -45 -320 -80 -536
-86 -538 -18 -7 23 -34 54 -36 l32 -1 15 90 c8 50 17 92 20 95 7 5 70 421 70
457 0 37 -26 53 -86 53 -49 0 -55 -3 -64 -25 -5 -13 -19 -34 -30 -45 -19 -19
-37 -48 -90 -146 -9 -17 -25 -40 -36 -52 -10 -11 -35 -51 -54 -87 -19 -37 -40
-69 -47 -72 -6 -2 -17 -18 -23 -34 -7 -16 -16 -29 -19 -29 -4 0 -20 69 -36
153 -15 83 -31 154 -35 157 -4 3 -17 54 -28 114 -12 60 -29 117 -38 127 -8 9
-35 21 -57 24 -23 4 -44 11 -47 15 -3 4 -17 -4 -31 -19z"/>
<path d="M7915 6800 c-16 -4 -57 -17 -90 -30 -33 -12 -75 -28 -93 -34 -20 -7
-35 -20 -38 -33 -6 -23 22 -123 35 -123 4 0 13 -17 20 -37 27 -78 84 -218 91
-223 3 -3 24 -51 45 -108 48 -127 55 -137 86 -129 49 14 55 22 40 64 -21 64
-55 148 -62 153 -9 8 -40 92 -35 97 2 2 27 10 55 18 83 22 106 11 215 -100
l96 -98 38 9 c22 5 38 16 40 26 5 25 -172 199 -225 223 -24 10 -43 20 -43 23
0 2 11 17 25 33 45 54 43 152 -5 220 -33 45 -121 68 -195 49z m65 -80 c0 -5 7
-10 15 -10 24 0 55 -60 55 -106 0 -35 -6 -46 -40 -78 -22 -20 -60 -43 -85 -50
l-44 -14 -16 49 c-9 27 -20 49 -25 49 -7 0 -40 88 -40 108 0 5 27 17 60 28 33
10 60 22 60 26 0 5 14 8 30 8 17 0 30 -4 30 -10z"/>
<path d="M7490 6689 c-63 -10 -139 -23 -169 -30 l-54 -11 7 -66 c4 -37 11 -69
15 -72 4 -3 13 -41 19 -85 38 -267 66 -422 78 -434 12 -13 29 -12 131 3 246
36 243 35 243 65 0 53 -5 54 -155 31 -76 -11 -139 -19 -141 -18 -4 5 -34 194
-34 217 0 16 15 21 115 36 l115 17 0 33 c0 19 -4 36 -10 40 -13 8 -180 -17
-180 -27 0 -4 -13 -8 -30 -8 -25 0 -30 4 -30 25 0 14 -4 25 -9 25 -5 0 -12 26
-16 58 -3 31 -9 67 -12 78 -4 20 1 22 56 29 34 4 61 10 61 15 0 4 30 11 67 15
36 4 72 9 80 12 25 10 12 74 -16 72 -9 -1 -68 -10 -131 -20z"/>
<path d="M3320 6681 c-5 -11 -10 -40 -10 -65 0 -25 -4 -46 -8 -46 -5 0 -13
-53 -20 -117 -6 -65 -18 -187 -27 -271 -9 -85 -14 -156 -11 -159 3 -4 25 -7
48 -7 l43 -1 12 110 c6 61 12 117 12 125 1 12 20 15 109 15 90 0 111 3 126 18
10 9 23 17 31 17 43 0 103 139 91 211 -18 111 -71 151 -230 175 -125 19 -153
18 -166 -5z m170 -71 c0 -5 9 -10 20 -10 29 0 78 -27 90 -49 5 -11 10 -44 10
-73 0 -58 -24 -109 -61 -128 -21 -12 -162 -11 -174 1 -5 6 8 153 21 237 5 31
7 32 49 32 25 0 45 -4 45 -10z"/>
<path d="M3876 6634 c-11 -10 -16 -34 -16 -70 0 -30 -4 -54 -8 -54 -10 0 -47
-512 -39 -534 4 -11 19 -16 46 -16 38 0 39 1 44 43 4 23 9 88 13 145 l7 102
44 0 c45 0 98 -22 120 -50 6 -8 19 -42 29 -75 55 -193 55 -193 77 -199 33 -9
65 -7 72 4 3 5 -1 36 -11 67 -45 157 -64 204 -92 234 -33 35 -29 49 21 68 14
6 38 26 53 46 23 30 28 47 28 98 1 72 -21 119 -69 145 -16 10 -33 20 -36 25
-6 9 -93 23 -196 31 -57 5 -75 3 -87 -10z m242 -98 c33 -17 42 -39 42 -107 0
-36 -5 -50 -26 -70 -23 -22 -34 -24 -112 -24 l-87 0 3 90 c4 145 1 139 82 132
38 -3 82 -13 98 -21z"/>
<path d="M6910 6623 c-8 -3 -17 -9 -20 -13 -3 -4 -20 -15 -37 -24 -45 -23 -67
-69 -68 -142 0 -48 5 -68 25 -97 14 -20 30 -37 35 -37 6 0 22 -11 37 -23 15
-13 66 -37 113 -52 47 -16 92 -36 101 -46 37 -41 27 -140 -17 -167 -38 -24
-138 -26 -204 -4 -36 12 -64 16 -69 11 -14 -13 5 -60 29 -73 11 -6 23 -15 27
-21 10 -13 217 -13 226 0 4 6 19 16 34 24 72 37 98 85 98 178 0 43 -22 103
-38 103 -5 0 -22 14 -39 30 -18 17 -58 39 -94 51 -155 51 -187 86 -163 177 13
49 114 67 199 37 22 -8 43 -15 48 -15 16 0 6 58 -14 81 -18 21 -30 24 -107 26
-48 1 -94 0 -102 -4z"/>
<path d="M4625 6590 c-80 -16 -138 -52 -172 -105 -18 -28 -36 -54 -40 -60 -31
-36 -44 -260 -21 -339 14 -45 23 -59 83 -123 51 -53 133 -78 236 -71 93 7 146
32 194 90 22 27 45 55 51 61 38 43 57 252 31 352 -12 48 -19 59 -80 131 -43
51 -189 84 -282 64z m167 -90 c8 -8 29 -25 46 -38 46 -36 57 -73 57 -197 0
-156 -28 -220 -119 -272 -12 -7 -52 -12 -89 -13 -148 0 -207 68 -207 240 0
129 14 174 74 235 28 29 60 55 71 58 40 11 152 2 167 -13z"/>
<path d="M6412 6575 c-78 -24 -112 -76 -112 -170 0 -41 6 -61 30 -97 31 -47
54 -61 164 -104 51 -21 77 -41 124 -98 14 -17 16 -56 3 -56 -5 0 -11 -9 -14
-19 -15 -57 -132 -78 -237 -41 -61 21 -70 19 -70 -13 0 -58 57 -88 169 -91
124 -2 200 43 238 142 14 36 14 51 5 94 -16 67 -42 101 -98 128 -26 12 -53 28
-61 36 -8 8 -21 14 -29 14 -19 0 -82 33 -111 59 -35 30 -31 84 9 124 28 29 38
32 90 32 32 0 62 -5 66 -11 9 -14 68 -34 76 -27 11 11 6 70 -6 80 -43 32 -162
41 -236 18z"/>
<path d="M5150 6560 c-13 -8 -15 -57 -15 -342 l0 -333 45 0 45 0 5 294 5 295
24 -70 c13 -38 27 -71 30 -74 4 -3 29 -68 56 -145 26 -77 51 -142 55 -145 4
-3 19 -39 32 -80 l25 -75 45 -3 c43 -3 46 -1 58 30 39 104 54 138 61 138 4 0
9 10 12 23 3 12 19 58 37 102 17 44 36 95 41 113 6 17 13 32 18 32 4 0 18 29
30 65 13 36 26 63 29 60 3 -3 5 -131 3 -285 l-2 -280 50 0 51 0 -2 338 -3 337
-60 2 c-76 4 -94 -11 -130 -103 -61 -157 -70 -179 -75 -184 -6 -5 -22 -42 -71
-168 -18 -45 -37 -81 -42 -79 -8 2 -56 128 -90 237 -6 19 -15 38 -19 41 -7 4
-88 222 -88 235 0 2 -13 10 -30 19 -32 17 -107 20 -130 5z"/>
<path d="M6057 6563 c-8 -15 6 -533 14 -533 5 0 9 -34 9 -75 l0 -75 40 0 40 0
-1 198 c-1 108 -4 262 -8 342 l-6 145 -42 3 c-22 2 -43 -1 -46 -5z"/>
</g>
</svg>
